<?xml version="1.0" standalone="no"?><!DOCTYPE svg PUBLIC "-//W3C//DTD SVG 1.1//EN" "http://www.w3.org/Graphics/SVG/1.1/DTD/svg11.dtd"><svg t="1515201741105" class="icon" style="" viewBox="0 0 1024 1024" version="1.1" xmlns="http://www.w3.org/2000/svg" p-id="3020" xmlns:xlink="http://www.w3.org/1999/xlink" width="200" height="200"><defs><style type="text/css"></style></defs><path d="M383.981836 767.963672C383.981836 697.270328 441.306655 640.018164 512 640.018164 582.693345 640.018164 640.018164 697.270328 640.018164 767.963672 640.018164 838.657017 582.693345 895.981836 512 895.981836 441.306655 895.981836 383.981836 838.657017 383.981836 767.963672L383.981836 767.963672ZM671.986377 512C671.986377 441.306655 729.311196 383.981836 800.004541 383.981836 870.697886 383.981836 928.022705 441.306655 928.022705 512 928.022705 582.693345 870.697886 640.018164 800.004541 640.018164 729.311196 640.018164 671.986377 582.693345 671.986377 512L671.986377 512ZM383.981836 255.963672C383.981836 185.270328 441.306655 128.018164 512 128.018164 582.693345 128.018164 640.018164 185.270328 640.018164 255.963672 640.018164 326.657017 582.693345 383.981836 512 383.981836 441.306655 383.981836 383.981836 326.657017 383.981836 255.963672L383.981836 255.963672ZM128.018164 512C128.018164 441.306655 185.270328 383.981836 255.963672 383.981836 326.729672 383.981836 383.981836 441.306655 383.981836 512 383.981836 582.693345 326.729672 640.018164 255.963672 640.018164 185.270328 640.018164 128.018164 582.693345 128.018164 512L128.018164 512ZM447.990918 512C447.990918 476.617 476.617 447.990918 512 447.990918 547.310345 447.990918 576.009082 476.617 576.009082 512 576.009082 547.310345 547.310345 576.009082 512 576.009082 476.617 576.009082 447.990918 547.310345 447.990918 512L447.990918 512ZM784.311054 945.750532C815.843338 991.741166 889.733504 1024 975.975025 1024 992.540372 1024 1024 924.607918 1024 924.607918 964.93146 916.034625 915.67135 891.913155 887.989783 859.654321 972.487583 768.326948 1024 646.193841 1024 512 1024 229.226621 794.773379 0 512 0 229.226621 0 0 229.226621 0 512 0 794.773379 229.226621 1024 512 1024 612.045977 1024 705.480346 995.373918 784.311054 945.750532L784.311054 945.750532Z" p-id="3021"></path></svg>